<?xml version="1.0" standalone="no"?>
<!DOCTYPE svg PUBLIC "-//W3C//DTD SVG 20010904//EN"
 "http://www.w3.org/TR/2001/REC-SVG-20010904/DTD/svg10.dtd">
<svg version="1.0" xmlns="http://www.w3.org/2000/svg"
 width="300.000000pt" height="300.000000pt" viewBox="0 0 300.000000 300.000000"
 preserveAspectRatio="xMidYMid meet">
<metadata>
Created by potrace 1.11, written by Peter Selinger 2001-2013
</metadata>
<g transform="translate(0.000000,300.000000) scale(0.100000,-0.100000)"
fill="#000000" stroke="none">
<path d="M2150 2263 l-145 -137 -7 48 c-8 60 -48 143 -87 180 l-29 28 -166
-142 c-91 -79 -166 -148 -166 -154 0 -22 17 -37 33 -30 40 15 62 -111 72 -406
l6 -185 -70 -50 c-39 -27 -71 -52 -71 -55 0 -3 25 -30 55 -60 l55 -54 0 -132
c0 -261 28 -482 72 -570 28 -57 95 -125 145 -148 l39 -17 96 98 c163 168 173
180 160 208 -8 18 -20 25 -49 27 -29 2 -41 9 -55 34 -27 47 -48 157 -48 260
l0 91 50 -11 c141 -29 362 83 560 283 155 156 215 280 214 446 0 214 -115 415
-289 507 -56 29 -197 78 -225 78 -3 0 -71 -62 -150 -137z m87 -224 c81 -39
152 -117 204 -224 91 -189 87 -357 -11 -453 -100 -96 -292 -55 -395 85 l-35
48 1 250 0 250 57 42 c66 48 81 48 179 2z"/>
<path d="M452 2230 c-62 -82 -115 -155 -117 -162 -3 -8 0 -22 7 -31 12 -16 17
-17 48 -3 19 7 68 19 108 25 82 13 366 31 485 31 l78 0 -3 -662 c-2 -365 -8
-671 -12 -682 -8 -15 -16 -17 -58 -12 -75 10 -204 53 -283 94 -80 42 -169 125
-210 196 -37 63 -46 182 -21 268 20 71 20 75 -4 81 -15 4 -44 -28 -150 -164
-72 -93 -133 -175 -136 -183 -12 -32 49 -199 108 -293 101 -161 274 -253 518
-278 l65 -7 70 53 c116 88 282 256 345 351 107 159 101 110 100 797 -1 607 0
632 36 673 12 13 13 21 4 37 -11 21 -15 21 -438 21 l-427 -1 -113 -149z"/>
</g>
</svg>
